<?xml version="1.0" encoding="UTF-8" standalone="no"?>
<!-- Created with Inkscape (http://www.inkscape.org/) -->

<svg
   xmlns:dc="http://purl.org/dc/elements/1.1/"
   xmlns:cc="http://creativecommons.org/ns#"
   xmlns:rdf="http://www.w3.org/1999/02/22-rdf-syntax-ns#"
   xmlns:svg="http://www.w3.org/2000/svg"
   xmlns="http://www.w3.org/2000/svg"
   xmlns:sodipodi="http://sodipodi.sourceforge.net/DTD/sodipodi-0.dtd"
   xmlns:inkscape="http://www.inkscape.org/namespaces/inkscape"
   width="48"
   height="48"
   viewBox="0 0 48.000001 48.000001"
   id="svg2"
   version="1.1"
   inkscape:version="0.91 r13725"
   sodipodi:docname="favicon.svg">
  <defs
     id="defs4" />
  <sodipodi:namedview
     id="base"
     pagecolor="#ffffff"
     bordercolor="#666666"
     borderopacity="1.0"
     inkscape:pageopacity="0.0"
     inkscape:pageshadow="2"
     inkscape:zoom="7.9195959"
     inkscape:cx="-0.81604279"
     inkscape:cy="8.3468782"
     inkscape:document-units="px"
     inkscape:current-layer="layer1"
     showgrid="false"
     units="px"
     inkscape:window-width="1523"
     inkscape:window-height="1268"
     inkscape:window-x="69"
     inkscape:window-y="69"
     inkscape:window-maximized="0" />
  <metadata
     id="metadata7">
    <rdf:RDF>
      <cc:Work
         rdf:about="">
        <dc:format>image/svg+xml</dc:format>
        <dc:type
           rdf:resource="http://purl.org/dc/dcmitype/StillImage" />
        <dc:title />
      </cc:Work>
    </rdf:RDF>
  </metadata>
  <g
     inkscape:label="Layer 1"
     inkscape:groupmode="layer"
     id="layer1"
     transform="translate(0,-1004.3622)">
    <rect
       style="opacity:1;fill:#0086e6;fill-opacity:1;stroke:#0086e6;stroke-width:5.87128925;stroke-linecap:round;stroke-miterlimit:4;stroke-dasharray:none;stroke-dashoffset:0;stroke-opacity:1"
       id="rect3347"
       width="42.128712"
       height="42.128712"
       x="2.9356441"
       y="1007.2979"
       rx="4"
       ry="4" />
    <g
       id="g4169"
       transform="translate(0,2)"
       style="fill:#555555;fill-opacity:1;stroke:none;opacity:0.135">
      <g
         id="g4171"
         style="fill:#555555;fill-opacity:1;stroke:none;stroke-opacity:1">
        <path
           inkscape:connector-curvature="0"
           id="path4173"
           d="m 3.1567267,1021.4894 0,2.8411 8.3432733,-3e-4 0,9.155 -5.5022192,-2e-4 0,-7.1974 -3.1567268,0 0,9.9122 9.975256,0 1.95709,-3.3898 0,-8.1007 -1.910852,-3.3097 z"
           style="fill:#555555;fill-opacity:1;fill-rule:evenodd;stroke:none;stroke-width:1px;stroke-linecap:butt;stroke-linejoin:miter;stroke-opacity:1"
           sodipodi:nodetypes="ccccccccccccc" />
        <path
           inkscape:connector-curvature="0"
           id="path4175"
           d="m 28.789348,1021.2369 0,3.0304 -8.90197,0 0,3.2199 7.576144,0 1.26518,2.1913 0,4.2484 -1.268898,2.1978 -10.160942,0 0,-3.0817 8.396893,0 0,-3.0936 -7.38674,0 -1.420527,-1.4205 0,-5.2086 1.483661,-2.0203 z"
           style="fill:#555555;fill-opacity:1;fill-rule:evenodd;stroke:none;stroke-width:1px;stroke-linecap:butt;stroke-linejoin:miter;stroke-opacity:1" />
        <path
           sodipodi:nodetypes="ccccccccccccc"
           inkscape:connector-curvature="0"
           id="path4177"
           d="m 30.683384,1021.1106 0,15.2786 3.282995,0 0,-10.3541 3.661803,3.6618 3.724938,-3.7249 0,10.4803 3.219861,0 0,-15.4048 -3.219861,0 -3.34613,3.8512 -3.977476,-3.7881 z"
           style="fill:#555555;fill-opacity:1;fill-rule:evenodd;stroke:none;stroke-width:1px;stroke-linecap:butt;stroke-linejoin:miter;stroke-opacity:1" />
      </g>
    </g>
    <g
       id="g4163">
      <g
         style="fill:#ffffff;fill-opacity:1;stroke:none;stroke-opacity:1"
         id="g3355">
        <path
           sodipodi:nodetypes="ccccccccccccc"
           style="fill:#ffffff;fill-opacity:1;fill-rule:evenodd;stroke:none;stroke-width:1px;stroke-linecap:butt;stroke-linejoin:miter;stroke-opacity:1"
           d="m 3.1567267,1021.4894 0,2.8411 8.3432733,-3e-4 0,9.155 -5.5022192,-2e-4 0,-7.1974 -3.1567268,0 0,9.9122 9.975256,0 1.95709,-3.3898 0,-8.1007 -1.910852,-3.3097 z"
           id="path3349"
           inkscape:connector-curvature="0" />
        <path
           style="fill:#ffffff;fill-rule:evenodd;stroke:none;stroke-width:1px;stroke-linecap:butt;stroke-linejoin:miter;stroke-opacity:1;fill-opacity:1"
           d="m 28.789348,1021.2369 0,3.0304 -8.90197,0 0,3.2199 7.576144,0 1.26518,2.1913 0,4.2484 -1.268898,2.1978 -10.160942,0 0,-3.0817 8.396893,0 0,-3.0936 -7.38674,0 -1.420527,-1.4205 0,-5.2086 1.483661,-2.0203 z"
           id="path3351"
           inkscape:connector-curvature="0" />
        <path
           style="fill:#ffffff;fill-opacity:1;fill-rule:evenodd;stroke:none;stroke-width:1px;stroke-linecap:butt;stroke-linejoin:miter;stroke-opacity:1"
           d="m 30.683384,1021.1106 0,15.2786 3.282995,0 0,-10.3541 3.661803,3.6618 3.724938,-3.7249 0,10.4803 3.219861,0 0,-15.4048 -3.219861,0 -3.34613,3.8512 -3.977476,-3.7881 z"
           id="path3353"
           inkscape:connector-curvature="0"
           sodipodi:nodetypes="ccccccccccccc" />
      </g>
    </g>
  </g>
</svg>
